<svg width="24" height="24" viewBox="0 0 24 24" fill="none" xmlns="http://www.w3.org/2000/svg">
<path d="M12 3.07987C12.8551 2.11105 14.1062 1.5 15.5 1.5C18.0773 1.5 20.1667 3.58934 20.1667 6.16667C20.1667 8.744 18.0773 10.8333 15.5 10.8333C14.1062 10.8333 12.8551 10.2223 12 9.25346M15.5 22.5H1.5V21.3333C1.5 17.4673 4.63401 14.3333 8.5 14.3333C12.366 14.3333 15.5 17.4673 15.5 21.3333V22.5ZM15.5 22.5H22.5V21.3333C22.5 17.4673 19.366 14.3333 15.5 14.3333C14.225 14.3333 13.0296 14.6742 12 15.2698M13.1667 6.16667C13.1667 8.744 11.0773 10.8333 8.5 10.8333C5.92267 10.8333 3.83333 8.744 3.83333 6.16667C3.83333 3.58934 5.92267 1.5 8.5 1.5C11.0773 1.5 13.1667 3.58934 13.1667 6.16667Z" stroke="white" stroke-width="2" stroke-linecap="round" stroke-linejoin="round"/>
</svg>
