<svg width="625" height="1024" viewBox="0 0 625 1024" fill="none"
    xmlns="http://www.w3.org/2000/svg">
    <g clip-path="url(#clip0_1139_26159)">
        <rect width="625" height="1024" fill="#261B6A"/>
        <path fill-rule="evenodd" clip-rule="evenodd" d="M208 39C208 117.977 143.977 182 65 182C34.148 182 0 203.028 0 233.88V372.101C0 388.062 12.9385 401 28.8989 401C43.9316 401 56.1445 389.338 60.1461 374.847C76.8406 314.393 132.236 270 198 270C255.481 270 305.041 303.915 327.761 352.827C339.686 378.498 362.279 401 390.585 401H408.913C428.843 401 445 384.843 445 364.913C445 348.765 434.018 334.996 419.605 327.715C372.975 304.157 341 255.813 341 200C341 144.034 373.15 95.5774 419.989 72.0915C434.196 64.9679 445 51.4106 445 35.5176C445 15.9018 429.098 0 409.482 0H242.112C222.298 0 208 19.1857 208 39ZM239.545 401C273.553 401 300.343 369.161 278.033 343.494C258.599 321.136 229.95 307 198 307C166.05 307 137.401 321.136 117.967 343.494C95.657 369.161 122.447 401 156.455 401H239.545ZM378 200C378 214.758 381.016 228.812 386.465 241.578C402.262 278.587 445 254.965 445 214.725V185.275C445 145.036 402.262 121.413 386.465 158.422C381.016 171.188 378 185.242 378 200ZM0 94.8508C0 112.446 7.77772 129.969 24.0011 136.78C36.613 142.074 50.4648 145 65 145C123.542 145 171 97.5422 171 39C171 38.6012 170.998 38.203 170.993 37.8053C170.735 14.4253 148.238 0 124.857 0H57C25.5198 0 0 25.5197 0 57V94.8508Z" fill="#D9E7E5" fill-opacity="0.03"/>
        <path fill-rule="evenodd" clip-rule="evenodd" d="M507.502 213.813C586.475 212.978 651.171 276.321 652.006 355.294C652.332 386.144 673.72 420.068 704.57 419.742L842.783 418.281C858.743 418.112 871.544 405.037 871.375 389.078C871.216 374.046 859.425 361.957 844.894 358.109C784.266 342.054 739.29 287.131 738.595 221.371C737.987 163.893 771.377 113.977 820.045 90.7415C845.589 78.5462 867.851 55.7161 867.552 27.4119L867.358 9.08491C867.148 -10.8442 850.821 -26.8292 830.892 -26.6186C814.745 -26.4479 801.093 -15.3207 793.964 -0.831704C770.901 46.0451 722.897 78.5289 667.087 79.1188C611.125 79.7104 562.331 48.074 538.351 1.48588C531.078 -12.6451 517.407 -23.3047 501.515 -23.1367C481.9 -22.9294 466.167 -6.8604 466.375 12.7543L468.144 180.115C468.353 199.929 487.689 214.023 507.502 213.813ZM869.149 178.443C868.789 144.437 836.669 117.985 811.239 140.566C789.087 160.235 775.255 189.031 775.593 220.98C775.931 252.928 790.368 281.426 812.931 300.623C838.833 322.66 870.386 295.535 870.027 261.529L869.149 178.443ZM666.696 42.1209C681.454 41.9649 695.475 38.8005 708.183 33.2167C745.022 17.0296 720.95 -25.4564 680.713 -25.031L651.264 -24.7197C611.027 -24.2944 587.857 18.691 625.031 34.0957C637.854 39.4097 651.939 42.2769 666.696 42.1209ZM565.549 421.211C583.143 421.025 600.583 413.063 607.222 396.768C612.383 384.101 615.162 370.219 615.008 355.685C614.389 297.146 566.432 250.192 507.893 250.811C507.495 250.815 507.096 250.822 506.699 250.83C483.323 251.336 469.136 273.984 469.383 297.364L470.101 365.217C470.433 396.696 496.221 421.944 527.7 421.611L565.549 421.211Z" fill="#D9E7E5" fill-opacity="0.03"/>
        <path fill-rule="evenodd" clip-rule="evenodd" d="M851.821 1059.79C772.847 1059.18 709.32 994.665 709.931 915.691C710.169 884.84 689.406 850.53 658.555 850.292L520.338 849.223C504.378 849.1 491.34 861.938 491.216 877.898C491.1 892.93 502.668 905.233 517.127 909.346C577.45 926.508 621.414 982.244 620.906 1048.01C620.461 1105.49 586.164 1154.78 537.079 1177.12C511.316 1188.85 488.64 1211.27 488.421 1239.57L488.279 1257.9C488.125 1277.83 504.157 1294.11 524.086 1294.27C540.234 1294.39 554.087 1283.51 561.48 1269.16C585.397 1222.71 633.987 1191.11 689.798 1191.54C745.762 1191.98 793.969 1224.5 817.092 1271.52C824.106 1285.78 837.579 1296.69 853.472 1296.81C873.087 1296.96 889.111 1281.18 889.263 1261.57L890.557 1094.2C890.71 1074.39 871.635 1059.94 851.821 1059.79ZM489.588 1088.54C489.326 1122.54 520.956 1149.58 546.795 1127.47C569.303 1108.21 583.66 1079.67 583.907 1047.72C584.154 1015.77 570.24 987.014 548.032 967.408C522.538 944.9 490.493 971.443 490.231 1005.45L489.588 1088.54ZM689.512 1228.54C674.755 1228.43 660.678 1231.34 647.87 1236.69C610.74 1252.2 634.032 1295.12 674.269 1295.43L703.719 1295.65C743.957 1295.96 767.909 1253.41 731.024 1237.33C718.3 1231.78 704.27 1228.66 689.512 1228.54ZM797.58 851.366C779.985 851.23 762.402 858.872 755.466 875.042C750.075 887.613 747.042 901.442 746.93 915.977C746.477 974.517 793.567 1022.34 852.107 1022.79C852.506 1022.8 852.904 1022.8 853.302 1022.8C876.683 1022.72 891.282 1000.33 891.463 976.952L891.987 909.097C892.231 877.618 866.909 851.902 835.429 851.659L797.58 851.366Z" fill="#D9E7E5" fill-opacity="0.03"/>
        <path fill-rule="evenodd" clip-rule="evenodd" d="M411 474C411 552.977 346.977 617 268 617C237.148 617 203 638.028 203 668.88V807.101C203 823.062 215.938 836 231.899 836C246.932 836 259.145 824.338 263.146 809.847C279.841 749.393 335.236 705 401 705C458.481 705 508.041 738.915 530.761 787.827C542.686 813.498 565.279 836 593.585 836H611.913C631.843 836 648 819.843 648 799.913C648 783.765 637.018 769.996 622.605 762.715C575.975 739.157 544 690.813 544 635C544 579.034 576.15 530.577 622.989 507.092C637.196 499.968 648 486.411 648 470.518C648 450.902 632.098 435 612.482 435H445.112C425.298 435 411 454.186 411 474ZM442.545 836C476.553 836 503.343 804.161 481.033 778.494C461.599 756.136 432.95 742 401 742C369.05 742 340.401 756.136 320.967 778.494C298.657 804.161 325.447 836 359.455 836H442.545ZM581 635C581 649.758 584.016 663.812 589.465 676.578C605.262 713.587 648 689.965 648 649.725V620.275C648 580.036 605.262 556.413 589.465 593.422C584.016 606.188 581 620.242 581 635ZM203 529.851C203 547.446 210.778 564.969 227.001 571.78C239.613 577.074 253.465 580 268 580C326.542 580 374 532.542 374 474C374 473.601 373.998 473.203 373.993 472.805C373.735 449.425 351.238 435 327.857 435H260C228.52 435 203 460.52 203 492V529.851Z" fill="#D9E7E5" fill-opacity="0.03"/>
        <path fill-rule="evenodd" clip-rule="evenodd" d="M-58 474C-58 552.977 -122.023 617 -201 617C-231.852 617 -266 638.028 -266 668.88V807.101C-266 823.062 -253.062 836 -237.101 836C-222.068 836 -209.855 824.338 -205.854 809.847C-189.159 749.393 -133.764 705 -68 705C-10.5186 705 39.0415 738.915 61.7612 787.827C73.6858 813.498 96.2793 836 124.585 836H142.913C162.843 836 179 819.843 179 799.913C179 783.765 168.018 769.996 153.605 762.715C106.975 739.157 75 690.813 75 635C75 579.034 107.15 530.577 153.989 507.092C168.196 499.968 179 486.411 179 470.518C179 450.902 163.098 435 143.482 435H-23.8881C-43.7023 435 -58 454.186 -58 474ZM-26.4549 836C7.55295 836 34.343 804.161 12.033 778.494C-7.40121 756.136 -36.0498 742 -68 742C-99.9502 742 -128.599 756.136 -148.033 778.494C-170.343 804.161 -143.553 836 -109.545 836H-26.4549ZM112 635C112 649.758 115.016 663.812 120.465 676.578C136.262 713.587 179 689.965 179 649.725V620.275C179 580.036 136.262 556.413 120.465 593.422C115.016 606.188 112 620.242 112 635ZM-266 529.851C-266 547.446 -258.222 564.969 -241.999 571.78C-229.387 577.074 -215.535 580 -201 580C-142.458 580 -95 532.542 -95 474C-95 473.601 -95.0022 473.203 -95.0066 472.805C-95.2648 449.425 -117.762 435 -141.143 435H-209C-240.48 435 -266 460.52 -266 492V529.851Z" fill="#D9E7E5" fill-opacity="0.03"/>
        <path fill-rule="evenodd" clip-rule="evenodd" d="M229 888C229 966.977 164.977 1031 86 1031C55.148 1031 21 1052.03 21 1082.88V1221.1C21 1237.06 33.9385 1250 49.8989 1250C64.9316 1250 77.1445 1238.34 81.1461 1223.85C97.8406 1163.39 153.236 1119 219 1119C276.481 1119 326.041 1152.92 348.761 1201.83C360.686 1227.5 383.279 1250 411.585 1250H429.913C449.843 1250 466 1233.84 466 1213.91C466 1197.77 455.018 1184 440.605 1176.71C393.975 1153.16 362 1104.81 362 1049C362 993.034 394.15 944.577 440.989 921.092C455.196 913.968 466 900.411 466 884.518C466 864.902 450.098 849 430.482 849H263.112C243.298 849 229 868.186 229 888ZM260.545 1250C294.553 1250 321.343 1218.16 299.033 1192.49C279.599 1170.14 250.95 1156 219 1156C187.05 1156 158.401 1170.14 138.967 1192.49C116.657 1218.16 143.447 1250 177.455 1250H260.545ZM399 1049C399 1063.76 402.016 1077.81 407.465 1090.58C423.262 1127.59 466 1103.96 466 1063.73V1034.27C466 994.036 423.262 970.413 407.465 1007.42C402.016 1020.19 399 1034.24 399 1049ZM21 943.851C21 961.446 28.7777 978.969 45.0011 985.78C57.613 991.074 71.4648 994 86 994C144.542 994 192 946.542 192 888C192 887.601 191.998 887.203 191.993 886.805C191.735 863.425 169.238 849 145.857 849H78C46.5198 849 21 874.52 21 906V943.851Z" fill="#D9E7E5" fill-opacity="0.03"/>
        <g clip-path="url(#clip1_1139_26159)">
            <path d="M516.313 454.162H512.762V462.978H509.829V454.162H506.277V452.049H516.313V454.162Z" fill="white"/>
            <path d="M530 462.978H527.085V455.659L524.978 460.408H522.955L520.845 455.659V462.978H518.08V452.049H521.489L524.049 457.533L526.598 452.049H530.003V462.978H530Z" fill="white"/>
            <path d="M155.52 530.207V461.438H167.896V530.207H155.52Z" fill="white"/>
            <path d="M186.144 502.642C186.144 507.573 187.651 511.349 190.368 514.249C193.078 516.86 196.706 518.309 201.542 518.309C206.062 518.309 209.69 516.86 212.704 513.957C215.422 511.057 216.636 507.285 216.636 502.35C216.636 497.998 215.422 494.518 212.411 491.618C209.39 488.715 205.77 487.267 201.542 487.267C197.014 487.267 193.385 488.715 190.368 491.618C187.651 494.518 186.144 498.29 186.144 502.642ZM173.16 502.642C173.16 499.158 173.76 495.678 175.274 492.487C176.781 489.003 178.591 486.103 181.309 483.488C184.03 480.88 187.044 478.848 190.368 477.688C193.989 476.236 197.306 475.368 201.238 475.368C204.859 475.368 208.48 476.24 211.804 477.4C215.122 478.56 218.143 480.592 220.864 482.915C223.877 485.523 225.991 488.427 227.506 491.907C229.013 495.39 229.923 498.874 229.923 502.354C229.923 506.417 229.013 510.189 227.809 513.384C226.595 516.576 224.485 519.476 221.763 522.091C219.053 524.991 216.029 527.022 212.704 528.182C209.083 529.631 205.462 530.214 201.238 530.214C197.306 530.214 193.685 529.631 190.368 528.182C187.044 526.731 183.726 524.699 181.005 522.091C178.588 519.187 176.477 516.284 175.27 513.092C173.752 509.9 173.156 506.417 173.156 502.645L173.16 502.642Z" fill="white"/>
            <path d="M423.832 485.088C413.537 485.938 410.889 490.181 410.889 499.507V525.515H398.83V500.073C398.83 485.938 407.359 474.064 423.832 474.064V485.088Z" fill="white"/>
            <path d="M381.943 452.049V477.46C377.046 474.634 372.145 472.939 366.556 472.939C351.261 472.939 339.158 484.81 339.158 499.229C339.158 513.648 351.133 525.518 366.428 525.518C381.723 525.518 393.698 513.644 393.698 499.229V452L381.943 452.049ZM366.465 513.929C357.935 513.929 350.877 507.426 350.877 499.225C350.877 491.025 357.935 484.525 366.465 484.525C374.994 484.525 381.76 491.028 381.76 499.225C381.76 507.422 374.994 513.929 366.465 513.929Z" fill="white"/>
            <path d="M123.078 476.24C136.362 476.24 147.232 484.944 150.249 496.551H137.269C134.851 491.619 129.42 488.135 123.078 488.135C114.322 488.135 107.377 494.811 107.377 503.226C107.377 511.641 114.322 518.316 123.078 518.316C129.416 518.316 134.851 514.833 137.269 509.901H150.249C147.232 521.504 136.362 530.211 123.078 530.211C107.68 530.208 95 518.021 95 503.222C95 488.424 107.68 476.237 123.078 476.237V476.24Z" fill="white"/>
            <path d="M299.904 525.518V495.837C299.904 490.185 304.907 485.376 310.789 485.376C316.966 485.376 321.969 490.185 321.969 495.837V525.518H334.028V496.118C334.028 483.963 323.736 473.787 310.792 473.787C298.145 473.787 287.557 483.963 287.557 496.118V525.518H299.908H299.904Z" fill="white"/>
            <path d="M475.445 502.902C475.445 503.155 475.438 503.405 475.431 503.658H475.445V525.849C475.445 530.563 473.916 535.213 470.833 538.879C470.61 539.146 470.38 539.407 470.142 539.66C465.735 544.746 459.846 547.287 451.91 547.287C446.314 547.287 441.321 545.874 437.492 543.052C433.67 539.941 430.733 535.698 428.963 530.046H439.844C440.729 532.306 442.495 534.281 444.551 535.413C446.91 536.826 449.258 537.392 451.91 537.392C456.324 537.392 459.846 535.986 462.798 532.875L462.816 532.851C463.95 531.178 464.557 529.223 464.557 527.227V521.796C460.958 523.982 456.712 525.241 452.206 525.241C445.74 525.241 439.932 522.766 435.733 518.738C431.541 514.709 428.967 509.124 428.967 502.906V473.783H441.325V503.11C441.325 507.781 444.368 512.07 449.006 513.458C453.124 514.692 457.162 513.423 459.857 510.787C461.836 508.846 463.087 506.157 463.087 503.194V473.783H475.445V502.902Z" fill="white"/>
            <path d="M270.213 477.108V507.577C270.213 513.377 265.078 518.316 259.039 518.316C252.701 518.316 247.562 513.381 247.562 507.577V477.108H235.186V507.285C235.186 519.764 245.752 530.207 259.036 530.207C272.016 530.207 282.886 519.761 282.886 507.285V477.108H270.209H270.213Z" fill="white"/>
            <path d="M496.49 523.339C501.898 523.339 506.281 519.126 506.281 513.929C506.281 508.732 501.898 504.519 496.49 504.519C491.083 504.519 486.699 508.732 486.699 513.929C486.699 519.126 491.083 523.339 496.49 523.339Z" fill="#DCAF10"/>
            <path d="M394.646 546.095C388.304 546.619 386.672 549.234 386.672 554.978V571H379.244V555.326C379.244 546.619 384.5 539.304 394.646 539.304V546.095Z" fill="white"/>
            <path d="M375.222 570.153V555.326C375.222 555.154 375.222 554.978 375.222 554.802C375.222 545.92 367.662 538.608 358.424 538.608C349.185 538.608 341.625 545.923 341.625 554.802C341.625 563.682 349.083 570.996 358.504 570.996C361.946 570.996 364.967 569.952 367.984 568.213V570.121L375.226 570.153H375.222ZM367.871 554.802C367.871 559.854 363.701 563.857 358.449 563.857C353.193 563.857 348.848 559.85 348.848 554.802C348.848 549.751 353.197 545.744 358.449 545.744C363.705 545.744 367.871 549.751 367.871 554.802Z" fill="white"/>
            <path d="M321.614 537.754C329.8 537.754 336.493 543.115 338.354 550.265H330.356C328.867 547.228 325.52 545.083 321.614 545.083C316.22 545.083 311.94 549.196 311.94 554.377C311.94 559.559 316.22 563.675 321.614 563.675C325.52 563.675 328.867 561.527 330.356 558.49H338.354C336.496 565.636 329.8 571 321.614 571C312.127 571 304.318 563.492 304.318 554.377C304.318 545.263 312.131 537.754 321.614 537.754Z" fill="white"/>
            <path d="M413.536 537.754C421.722 537.754 428.415 543.115 430.276 550.265H422.277C420.789 547.228 417.442 545.083 413.536 545.083C408.142 545.083 403.862 549.196 403.862 554.377C403.862 559.559 408.142 563.675 413.536 563.675C417.442 563.675 420.789 561.527 422.277 558.49H430.276C428.418 565.636 421.722 571 413.536 571C404.049 571 396.24 563.492 396.24 554.377C396.24 545.263 404.052 537.754 413.536 537.754Z" fill="white"/>
            <path d="M400.267 555.85C400.252 553.882 400.237 551.917 400.223 549.948C410.211 549.966 420.2 549.987 430.188 550.004C430.437 550.813 430.693 551.991 430.638 553.418C430.601 554.384 430.429 555.207 430.243 555.85H400.263H400.267Z" fill="white"/>
        </g>
    </g>
    <defs>
        <clipPath id="clip0_1139_26159">
            <rect width="625" height="1024" fill="white"/>
        </clipPath>
        <clipPath id="clip1_1139_26159">
            <rect width="435" height="119" fill="white" transform="translate(95 452)"/>
        </clipPath>
    </defs>
</svg>
