<svg width="24" height="23" viewBox="0 0 24 23" fill="none" xmlns="http://www.w3.org/2000/svg">
<path d="M22.3008 11.5C22.3008 17.299 17.5998 22 11.8008 22M22.3008 11.5C22.3008 5.70101 17.5998 1 11.8008 1M22.3008 11.5H1.30078M11.8008 22C6.00179 22 1.30078 17.299 1.30078 11.5M11.8008 22C13.7338 22 15.3008 17.299 15.3008 11.5C15.3008 5.70101 13.7338 1 11.8008 1M11.8008 22C9.86778 22 8.30078 17.299 8.30078 11.5C8.30078 5.70101 9.86778 1 11.8008 1M1.30078 11.5C1.30078 5.70101 6.00179 1 11.8008 1" stroke="#386272" stroke-width="2" stroke-linecap="round" stroke-linejoin="round"/>
</svg>
