<svg width="43" height="43" viewBox="0 0 43 43" fill="none" xmlns="http://www.w3.org/2000/svg">
<path fill-rule="evenodd" clip-rule="evenodd" d="M43 21.5C43 33.3741 33.3741 43 21.5 43C9.62588 43 0 33.3741 0 21.5C0 9.62588 9.62588 0 21.5 0C33.3741 0 43 9.62588 43 21.5ZM26.875 13.4375C26.875 16.406 24.4685 18.8125 21.5 18.8125C18.5315 18.8125 16.125 16.406 16.125 13.4375C16.125 10.469 18.5315 8.0625 21.5 8.0625C24.4685 8.0625 26.875 10.469 26.875 13.4375ZM21.4998 24.1875C16.0777 24.1875 11.4056 27.3989 9.28191 32.0235C12.239 35.4536 16.6159 37.625 21.5 37.625C26.3839 37.625 30.7608 35.4537 33.7178 32.0237C31.5942 27.399 26.922 24.1875 21.4998 24.1875Z" fill="#386272"/>
</svg>
