<svg width="22" height="24" viewBox="0 0 22 24" fill="none" xmlns="http://www.w3.org/2000/svg">
<path d="M6.33268 6.16667V15.5C6.33268 16.7887 7.37735 17.8333 8.66602 17.8333H15.666M6.33268 6.16667V3.83333C6.33268 2.54467 7.37735 1.5 8.66602 1.5H14.0161C14.3255 1.5 14.6223 1.62292 14.8411 1.84171L19.991 6.99162C20.2098 7.21042 20.3327 7.50716 20.3327 7.81658V15.5C20.3327 16.7887 19.288 17.8333 17.9994 17.8333H15.666M6.33268 6.16667H3.66602C2.56145 6.16667 1.66602 7.0621 1.66602 8.16667V20.1667C1.66602 21.4553 2.71068 22.5 3.99935 22.5H13.666C14.7706 22.5 15.666 21.6046 15.666 20.5V17.8333" stroke="white" stroke-width="2" stroke-linecap="round" stroke-linejoin="round"/>
</svg>
