<svg width="25" height="25" viewBox="0 0 25 25" fill="none" xmlns="http://www.w3.org/2000/svg">
<path fill-rule="evenodd" clip-rule="evenodd" d="M1.37192 1.37095C2.13345 0.609424 3.36812 0.609424 4.12964 1.37095L12.5008 9.74209L20.8719 1.37095C21.6334 0.609424 22.8681 0.609424 23.6296 1.37095C24.3912 2.13247 24.3912 3.36714 23.6296 4.12866L15.2585 12.4998L23.6296 20.8709C24.3912 21.6325 24.3912 22.8671 23.6296 23.6287C22.8681 24.3902 21.6334 24.3902 20.8719 23.6287L12.5008 15.2575L4.12964 23.6287C3.36812 24.3902 2.13345 24.3902 1.37192 23.6287C0.610401 22.8671 0.610401 21.6325 1.37192 20.8709L9.74307 12.4998L1.37192 4.12866C0.610401 3.36714 0.610401 2.13247 1.37192 1.37095Z" fill="#9DC5C0"/>
</svg>
