<svg width="56" height="61" viewBox="0 0 56 61" fill="none" xmlns="http://www.w3.org/2000/svg">
<path d="M34.5761 5.45658L38.0854 5.42931L38.0617 2.44612C38.0571 1.98528 37.8675 1.53625 37.5374 1.21358C37.2083 0.889987 36.7561 0.706378 36.2938 0.710014L18.9916 0.844539C18.5312 0.849084 18.0799 1.03906 17.7553 1.36628C17.4307 1.69441 17.2484 2.14616 17.252 2.607L17.2766 5.5902L20.7841 5.56293L20.7741 4.32857L34.567 4.22131L34.577 5.45567L34.5761 5.45658Z" fill="#386272"/>
<path d="M4.64288 16.814C4.09037 16.8185 3.56702 17.0676 3.216 17.4939C2.86498 17.9202 2.72275 18.4801 2.82577 19.0209L10.5948 59.444C10.7643 60.3248 11.5402 60.9592 12.4392 60.9529L43.8334 60.7074C44.7278 60.7002 45.4927 60.0603 45.6532 59.1831L53.0621 18.6419C53.1623 18.1001 53.011 17.5357 52.6554 17.1139C52.2998 16.6913 51.7683 16.4477 51.2149 16.4522L4.64197 16.814H4.64288ZM18.0291 58.2087C17.0207 58.3687 16.0716 57.6842 15.9121 56.6799L10.5783 23.3612C10.417 22.3541 11.1035 21.4106 12.1146 21.2506C13.123 21.0897 14.0712 21.7741 14.2317 22.7804L19.5654 56.099C19.7268 57.1034 19.0384 58.0496 18.03 58.2105L18.0291 58.2087ZM28.2553 58.3405C27.2332 58.3487 26.3981 57.5297 26.3917 56.5108L26.1263 22.7722C26.12 21.7532 26.9415 20.9215 27.9608 20.9143C28.9847 20.9061 29.8198 21.7251 29.8262 22.7431L30.0915 56.4817C30.0979 57.4997 29.2764 58.3323 28.2553 58.3405ZM45.3815 23.0894L40.5711 56.4872C40.4243 57.4943 39.4889 58.1942 38.4769 58.0487C37.4648 57.9051 36.7628 56.9698 36.9087 55.9627L41.719 22.564C41.8649 21.5569 42.8022 20.857 43.8142 21.0024C44.8253 21.1479 45.5283 22.0805 45.3815 23.0894Z" fill="#386272"/>
<path d="M0.494024 15.0876L55.3374 14.6603L55.2936 9.09209L50.206 9.13117L50.1842 6.20252C50.1805 5.97346 50.0875 5.75077 49.9243 5.5917C49.7611 5.43081 49.5341 5.33992 49.3071 5.34083L38.0853 5.42809L34.576 5.45536L20.7831 5.56352L17.2756 5.59079L6.81333 5.67169C6.58449 5.6735 6.3602 5.76804 6.20155 5.93074C6.03926 6.09253 5.94809 6.31705 5.94991 6.5461L5.97179 9.47567L0.451172 9.51839L0.494936 15.0866L0.494024 15.0876Z" fill="#DCAF10"/>
<path d="M27.9614 20.9141C26.9412 20.9214 26.1206 21.7531 26.127 22.772L26.3923 56.5106C26.3987 57.5296 27.2339 58.3485 28.2559 58.3404C29.2771 58.3331 30.0986 57.5005 30.0922 56.4816L29.8269 22.7429C29.8196 21.724 28.9844 20.9059 27.9614 20.9141Z" fill="#9DC5C0"/>
<path d="M41.7204 22.5641L36.91 55.9628C36.7632 56.9708 37.4662 57.9052 38.4782 58.0488C39.4902 58.1943 40.4266 57.4935 40.5725 56.4872L45.3829 23.0895C45.5296 22.0815 44.8267 21.148 43.8156 21.0025C42.8035 20.8571 41.8663 21.557 41.7204 22.5641Z" fill="#9DC5C0"/>
<path d="M12.1145 21.2487C11.1034 21.4086 10.4168 22.3521 10.5782 23.3593L15.9119 56.6779C16.0715 57.6823 17.0197 58.3668 18.029 58.2068C19.0374 58.0459 19.7257 57.1006 19.5644 56.0953L14.2306 22.7766C14.0702 21.7704 13.122 21.0869 12.1136 21.2469L12.1145 21.2487Z" fill="#9DC5C0"/>
</svg>
