<svg width="20" height="25" viewBox="0 0 20 25" fill="none" xmlns="http://www.w3.org/2000/svg">
<path d="M17.6008 13.949V10.1236C17.5991 8.41915 16.9957 6.77032 15.8975 5.4691C14.7993 4.16788 13.2773 3.29823 11.6008 3.01416V1.70295C11.6008 1.38391 11.4744 1.07793 11.2493 0.852335C11.0243 0.626739 10.719 0.5 10.4008 0.5C10.0825 0.5 9.7773 0.626739 9.55225 0.852335C9.32721 1.07793 9.20078 1.38391 9.20078 1.70295V3.01416C7.52431 3.29823 6.00221 4.16788 4.90404 5.4691C3.80588 6.77032 3.2025 8.41915 3.20078 10.1236V13.949C2.50052 14.1971 1.89398 14.6564 1.46431 15.2637C1.03464 15.871 0.802869 16.5967 0.800781 17.3413V19.7472C0.800781 20.0662 0.92721 20.3722 1.15225 20.5978C1.3773 20.8234 1.68252 20.9501 2.00078 20.9501H5.76878C6.04512 21.9694 6.64838 22.8693 7.4855 23.5109C8.32261 24.1524 9.34706 24.5 10.4008 24.5C11.4545 24.5 12.4789 24.1524 13.3161 23.5109C14.1532 22.8693 14.7564 21.9694 15.0328 20.9501H18.8008C19.119 20.9501 19.4243 20.8234 19.6493 20.5978C19.8744 20.3722 20.0008 20.0662 20.0008 19.7472V17.3413C19.9987 16.5967 19.7669 15.871 19.3373 15.2637C18.9076 14.6564 18.301 14.1971 17.6008 13.949V13.949ZM5.60078 10.1236C5.60078 8.84741 6.10649 7.62351 7.00667 6.72113C7.90684 5.81874 9.12774 5.31179 10.4008 5.31179C11.6738 5.31179 12.8947 5.81874 13.7949 6.72113C14.6951 7.62351 15.2008 8.84741 15.2008 10.1236V13.7324H5.60078V10.1236ZM10.4008 22.1531C9.98195 22.1505 9.57107 22.0381 9.20898 21.8271C8.84689 21.6161 8.54619 21.3137 8.33678 20.9501H12.4648C12.2554 21.3137 11.9547 21.6161 11.5926 21.8271C11.2305 22.0381 10.8196 22.1505 10.4008 22.1531ZM17.6008 18.5442H3.20078V17.3413C3.20078 17.0222 3.32721 16.7162 3.55225 16.4906C3.7773 16.2651 4.08252 16.1383 4.40078 16.1383H16.4008C16.719 16.1383 17.0243 16.2651 17.2493 16.4906C17.4744 16.7162 17.6008 17.0222 17.6008 17.3413V18.5442Z" fill="#386272"/>
</svg>
