<svg width="24" height="24" viewBox="0 0 24 24" fill="none" xmlns="http://www.w3.org/2000/svg">
<path d="M10.0454 3.03686C10.5429 0.987713 13.4571 0.987714 13.9546 3.03686C14.276 4.36058 15.7925 4.98877 16.9558 4.27999C18.7565 3.18279 20.8172 5.24349 19.72 7.04422C19.0112 8.20746 19.6394 9.72404 20.9631 10.0454C23.0123 10.5429 23.0123 13.4571 20.9631 13.9546C19.6394 14.276 19.0112 15.7925 19.72 16.9558C20.8172 18.7565 18.7565 20.8172 16.9558 19.72C15.7925 19.0112 14.276 19.6394 13.9546 20.9631C13.4571 23.0123 10.5429 23.0123 10.0454 20.9631C9.72404 19.6394 8.20747 19.0112 7.04422 19.72C5.24349 20.8172 3.18279 18.7565 4.27999 16.9558C4.98877 15.7925 4.36058 14.276 3.03686 13.9546C0.987714 13.4571 0.987713 10.5429 3.03686 10.0454C4.36058 9.72404 4.98877 8.20746 4.27999 7.04422C3.18279 5.24349 5.24349 3.18279 7.04422 4.27999C8.20746 4.98877 9.72404 4.36058 10.0454 3.03686Z" stroke="white" stroke-width="2" stroke-linecap="round" stroke-linejoin="round"/>
<path d="M15.5 12C15.5 13.933 13.933 15.5 12 15.5C10.067 15.5 8.5 13.933 8.5 12C8.5 10.067 10.067 8.5 12 8.5C13.933 8.5 15.5 10.067 15.5 12Z" stroke="white" stroke-width="2" stroke-linecap="round" stroke-linejoin="round"/>
</svg>
